<svg xmlns="http://www.w3.org/2000/svg" xmlns:xlink="http://www.w3.org/1999/xlink" viewBox="0 0 482.77 200.46"><defs><style>.cls-1{fill:url(#Degradado_sin_nombre_332);}.cls-2{fill:url(#Degradado_sin_nombre_331);}</style><linearGradient id="Degradado_sin_nombre_332" x1="3644.19" y1="547.63" x2="3554.02" y2="874.44" gradientTransform="translate(-2105.14 2962.84) rotate(-61.79)" gradientUnits="userSpaceOnUse"><stop offset="0.09" stop-color="#f2f2f2"/><stop offset="0.21" stop-color="#8cc63f"/><stop offset="0.9"/></linearGradient><linearGradient id="Degradado_sin_nombre_331" x1="3584.33" y1="507.62" x2="3687.07" y2="914.72" gradientTransform="translate(-2105.14 2962.84) rotate(-61.79)" gradientUnits="userSpaceOnUse"><stop offset="0.06" stop-color="#f2f2f2"/><stop offset="0.17" stop-color="#8cc63f"/><stop offset="1"/></linearGradient></defs><g id="Capa_2" data-name="Capa 2"><g id="Capa_6" data-name="Capa 6"><path class="cls-1" d="M482.77,157.69a135.3,135.3,0,0,0-38.54-14.06c-12.3-2.44-31.46-4.4-66.53,2.86-31.28,6.47-53,16.21-65.44,20.6-53.71,19-86.18,30.46-117.13,33.24a213.11,213.11,0,0,1-47.35-3.66C126,192.51,110.17,185.92,90,176.81,66.2,166.08,35.57,151.48,0,132.49a462.36,462.36,0,0,1,77.28-35A457.49,457.49,0,0,1,174.45,75h0a428.23,428.23,0,0,1,118,2.46C383.43,92.1,448.52,132.55,482.77,157.69Z"/><path class="cls-2" d="M482.77,157.69c-34.25-25.14-99.34-65.59-190.28-80.2a428.23,428.23,0,0,0-118-2.46h0A457.49,457.49,0,0,0,77.28,97.45,462.36,462.36,0,0,0,0,132.49C7.89,119.91,78.69,6.68,211.89.25,287.64-3.41,380,33.12,482.77,157.69Z"/></g></g></svg>